<?xml version="1.0" encoding="utf-8"?>
<!-- Generator: Adobe Illustrator 27.0.0, SVG Export Plug-In . SVG Version: 6.00 Build 0)  -->
<svg version="1.1" id="Layer_1" xmlns="http://www.w3.org/2000/svg" xmlns:xlink="http://www.w3.org/1999/xlink" x="0px" y="0px"
	 viewBox="0 0 512 512" style="enable-background:new 0 0 512 512;" xml:space="preserve">
<style type="text/css">
	.st0{fill:#E90129;}
</style>
<g id="XMLID_1_">
	<ellipse id="XMLID_3_" class="st0" cx="168.42" cy="97.35" rx="37.88" ry="38.44"/>
	<ellipse id="XMLID_4_" class="st0" cx="255.82" cy="97.21" rx="37.88" ry="38.44"/>
	<ellipse id="XMLID_5_" class="st0" cx="343.07" cy="97.21" rx="37.88" ry="38.44"/>
	<ellipse id="XMLID_6_" class="st0" cx="255.26" cy="24.26" rx="24.69" ry="24.27"/>
	<rect id="XMLID_7_" x="168" y="145.88" class="st0" width="183.35" height="42.51"/>
	<path id="XMLID_8_" d="M316.56,507.95l1.26-45.73c-28.34,29.46-40.26,44.89-82.77,48.96c-19.22,1.82-40.26,0.84-57.09-5.61
		c-16.69-6.59-26.37-18.8-34.65-28.62c-8-9.96-13.75-22.16-16.97-36.47c-2.24-9.68-3.37-24.83-3.37-45.73v-179h79.54l0.7,162.87
		c0.14,25.53,0.56,42.51,2.81,51.48c3.51,12.91,5.33,14.17,16.69,21.6c14.03,5.89,12.2,5.19,28.9,5.19
		c16.69,0,18.66-1.82,33.11-10.1c13.47-8,17.96-19.22,22.73-32.55c2.95-14.03,3.37-19.64,3.51-44.33l0.7-153.47l77.58-0.7v292.21
		L316.56,507.95z"/>
</g>
</svg>
